HIERARCHY
ROOT Hips
{
    OFFSET 0.000000 0.000000 0.000000
    CHANNELS 6 Xposition Yposition Zposition Zrotation Xrotation Yrotation
    JOINT Spine
    {
        OFFSET -0.000000 7.897928 0.000000
        CHANNELS 3 Zrotation Xrotation Yrotation
        JOINT Spine1
        {
            OFFSET -0.000000 22.881742 0.000000
            CHANNELS 3 Zrotation Xrotation Yrotation
            JOINT Neck
            {
                OFFSET -0.000000 22.787771 2.071616
                CHANNELS 3 Zrotation Xrotation Yrotation
                JOINT Head
                {
                    OFFSET -0.000000 13.484266 -1.926324
                    CHANNELS 3 Zrotation Xrotation Yrotation
                    End Site
                    {
                        OFFSET -0.000000 24.079046 0.000000
                    }
                }
            }
            JOINT LeftShoulder
            {
                OFFSET 3.854963 21.096247 -0.110468
                CHANNELS 3 Zrotation Xrotation Yrotation
                JOINT LeftArm
                {
                    OFFSET 10.572188 0.000000 0.000000
                    CHANNELS 3 Zrotation Xrotation Yrotation
                    JOINT LeftForeArm
                    {
                        OFFSET 34.932854 0.000000 0.000000
                        CHANNELS 3 Zrotation Xrotation Yrotation
                        JOINT LeftHand
                        {
                            OFFSET 23.279285 0.000000 0.000000
                            CHANNELS 3 Zrotation Xrotation Yrotation
                            End Site
                            {
                                OFFSET 14.447429 0.000000 0.000000
                            }
                        }
                    }
                }
            }
            JOINT RightShoulder
            {
                OFFSET -3.825334 21.096247 -0.110468
                CHANNELS 3 Zrotation Xrotation Yrotation
                JOINT RightArm
                {
                    OFFSET -10.572188 0.000000 0.000000
                    CHANNELS 3 Zrotation Xrotation Yrotation
                    JOINT RightForeArm
                    {
                        OFFSET -34.932854 0.000000 0.000000
                        CHANNELS 3 Zrotation Xrotation Yrotation
                        JOINT RightHand
                        {
                            OFFSET -23.279285 0.000000 0.000000
                            CHANNELS 3 Zrotation Xrotation Yrotation
                            End Site
                            {
                                OFFSET -14.447429 0.000000 0.000000
                            }
                        }
                    }
                }
            }
        }
    }
    JOINT LeftUpLeg
    {
        OFFSET 9.631618 0.000000 0.000000
        CHANNELS 3 Zrotation Xrotation Yrotation
        JOINT LeftLeg
        {
            OFFSET -0.000000 -35.385456 0.000000
            CHANNELS 3 Zrotation Xrotation Yrotation
            JOINT LeftFoot
            {
                OFFSET -0.000000 -43.284000 0.000000
                CHANNELS 3 Zrotation Xrotation Yrotation
                JOINT LeftToeBase
                {
                    OFFSET -0.000000 -6.260552 14.447429
                    CHANNELS 3 Zrotation Xrotation Yrotation
                    End Site
                    {
                        OFFSET -0.000000 0.000000 3.852648
                    }
                }
            }
        }
    }
    JOINT RightUpLeg
    {
        OFFSET -9.631618 0.000000 0.000000
        CHANNELS 3 Zrotation Xrotation Yrotation
        JOINT RightLeg
        {
            OFFSET -0.000000 -35.385456 0.000000
            CHANNELS 3 Zrotation Xrotation Yrotation
            JOINT RightFoot
            {
                OFFSET -0.000000 -43.284000 0.000000
                CHANNELS 3 Zrotation Xrotation Yrotation
                JOINT RightToeBase
                {
                    OFFSET -0.000000 -6.260552 14.447429
                    CHANNELS 3 Zrotation Xrotation Yrotation
                    End Site
                    {
                        OFFSET -0.000000 0.000000 3.852648
                    }
                }
            }
        }
    }
}
MOTION
Frames:    4
Frame Time:    0.008333
57.786400    87.383034    19.190830    -0.414478    0.028062    86.080833    1.045392    -3.292956    -1.477416    -2.089165    -0.537281    -1.517252    -3.652716    18.550699    -9.179982    13.985839    -2.692481    -7.328147    17.873789    2.304600    3.553002    -16.167866    -1.392305    -8.376800    3.659552    -5.521630    -3.080298    -2.074434    -5.392841    -1.709370    -14.067556    -0.277124    11.773686    15.856077    1.749134    2.765378    -1.257522    -1.885244    1.631067    0.263450    -1.850007    7.535926    7.023459    5.370915    2.944398    -4.135200    5.230346    2.473691    -4.412488    -10.481496    14.815776    0.000000    0.000000    0.000000    -8.667644    -1.239552    -2.696524    3.982437    11.755761    -0.899365    4.597727    -10.064019    -9.356616    0.000000    0.000000    0.000000    
57.785702    87.382111    19.187441    -0.415566    0.037157    86.081680    1.024328    -3.297589    -1.475348    -2.057571    -0.524035    -1.514286    -3.718595    18.558935    -9.164936    14.073364    -2.704547    -7.298139    17.857403    2.299832    3.552468    -16.170671    -1.402977    -8.392871    3.647686    -5.508370    -3.081059    -2.080436    -5.380647    -1.661691    -14.082920    -0.270439    11.759176    15.856273    1.762571    2.773412    -1.258609    -1.895988    1.627349    0.384032    -1.853014    7.493612    7.009974    5.365489    2.951199    -4.135506    5.233445    2.476028    -4.379874    -10.473369    14.816598    0.000000    0.000000    0.000000    -8.678381    -1.252184    -2.715605    3.998073    11.721590    -0.894687    4.584057    -10.025215    -9.389388    0.000000    0.000000    0.000000    
57.788479    87.380554    19.187075    -0.406168    0.030588    86.073380    1.036648    -3.285859    -1.474351    -2.067655    -0.536084    -1.513784    -3.725234    18.556082    -9.156995    14.088780    -2.666065    -7.291962    17.865858    2.309706    3.533125    -16.177183    -1.400584    -8.372287    3.645926    -5.507957    -3.099206    -2.120966    -5.379479    -1.642069    -14.058805    -0.268516    11.779016    15.855832    1.779011    2.765238    -1.293341    -1.839210    1.613391    0.474627    -1.790030    7.478226    7.019779    5.376307    2.961865    -4.140803    5.245914    2.459711    -4.377076    -10.489190    14.819942    0.000000    0.000000    0.000000    -8.674717    -1.251057    -2.696007    3.999895    11.736429    -0.879068    4.583656    -10.028961    -9.410351    0.000000    0.000000    0.000000    
57.788109    87.378853    19.184471    -0.399680    0.033139    86.075706    1.025141    -3.285857    -1.473216    -2.047909    -0.510585    -1.511739    -3.723798    18.522802    -9.162751    14.079409    -2.646771    -7.300645    17.878695    2.294983    3.536870    -16.205997    -1.403972    -8.392093    3.644198    -5.508624    -3.101887    -2.088485    -5.380701    -1.635347    -14.068362    -0.272623    11.754360    15.860091    1.792299    2.788198    -1.281792    -1.830689    1.598442    0.352882    -1.789827    7.468301    7.015925    5.382567    2.950059    -4.143013    5.239878    2.469802    -4.363180    -10.486910    14.818444    0.000000    0.000000    0.000000    -8.682107    -1.244510    -2.695299    3.989184    11.786738    -0.898018    4.588451    -10.080795    -9.354008    0.000000    0.000000    0.000000    
